:SAMPLES-PER-SECOND 24
:FULLY-SPECIFIED
:DEGREES
92
root  -6.23308 37.7948 25.8793 179.903 55.3256 174.268
RightUpLeg  0.263503 -10.5163 -18.9865
RightLeg  21.7806 10.9491 4.58469
RightFoot  -22.5606 1.27229 14.4535
RightToes  -1.46203e-006 3.27826e-006 1.63871e-007
Spine  9.67372 0.157523 4.15665
Spine1  13.2473 1.82005 -5.33405
HEad  -29.1286 42.0766 -32.6276
LeftShoulder1  2.24427 -3.42506 -26.2598
LeftArm  -7.36277 0.155575 -31.9436
LeftForeArm  68.6359 -78.7694 -58.793
LeftHand  -0.274464 2.65592 11.3574
RightShoulder  3.73213 6.26347 32.3274
RightArm  12.6549 -29.5053 26.9127
RightForeArm  140.095 75.0809 138.515
RightHand  -0.117382 -12.6208 0.735081
LeftUpLeg  -34.1849 23.935 2.65527
LeftLeg  27.8564 -9.55731 -5.10076
LeftFoot  12.832 2.50368 -12.0301
LeftToes  1.24767e-006 1.47042e-008 1.32732e-009
93
root  -6.24473 37.3469 25.7798 178.622 54.0513 173.203
RightUpLeg  -0.799566 -12.4303 -20.5573
RightLeg  26.8008 11.0889 5.79751
RightFoot  -25.0767 1.47845 13.6601
RightToes  -1.46203e-006 3.27826e-006 1.63871e-007
Spine  11.2154 -0.131531 2.7766
Spine1  12.4035 1.20164 -4.76051
HEad  -30.115 42.3925 -32.8054
LeftShoulder1  2.16225 -3.28607 -25.6934
LeftArm  -9.67636 -0.412423 -30.4471
LeftForeArm  69.3521 -78.9844 -61.9344
LeftHand  -0.269183 3.25183 14.2024
RightShoulder  3.7095 6.28362 32.0158
RightArm  11.3297 -31.4118 27.879
RightForeArm  128.289 77.8332 125.732
RightHand  -0.0868903 -9.48906 0.837923
LeftUpLeg  -36.3823 26.0151 2.27289
LeftLeg  29.5955 -13.3533 -7.70914
LeftFoot  10.5786 2.92637 -15.3765
LeftToes  1.24767e-006 1.47042e-008 1.32732e-009
94
root  -6.18135 36.6944 25.669 177.7 50.6728 172.99
RightUpLeg  -0.311195 -15.3736 -22.0979
RightLeg  31.9783 10.7925 6.96347
RightFoot  -27.7781 1.71509 13.1505
RightToes  -1.46203e-006 3.27826e-006 1.63871e-007
Spine  12.9985 -0.541668 0.798492
Spine1  11.8055 0.0423298 -3.05957
HEad  -30.7003 41.6389 -32.4395
LeftShoulder1  2.18388 -3.39929 -25.4769
LeftArm  -11.0041 -2.30215 -27.9391
LeftForeArm  57.706 -77.5746 -51.766
LeftHand  -0.270742 3.47759 15.9912
RightShoulder  3.77635 6.33829 32.4861
RightArm  10.7392 -27.5591 29.2385
RightForeArm  87.8938 80.0569 85.0488
RightHand  -0.00147291 -7.94199 -1.77503
LeftUpLeg  -38.0681 28.022 0.656791
LeftLeg  23.8362 -14.3649 -5.96339
LeftFoot  5.60934 2.022 -13.7094
LeftToes  1.24767e-006 1.47042e-008 1.32732e-009
95
root  -6.05722 35.976 25.2195 178.733 46.8211 174.895
RightUpLeg  1.41121 -18.3403 -22.709
RightLeg  35.5995 11.7713 8.68713
RightFoot  -31.2113 2.35022 14.5679
RightToes  -1.46203e-006 3.27826e-006 1.63871e-007
Spine  12.7007 -0.524446 2.05197
Spine1  12.8651 0.0763569 -2.53234
HEad  -30.8228 38.6215 -31.1877
LeftShoulder1  2.27045 -3.66007 -25.5378
LeftArm  -10.3316 -3.59034 -26.8441
LeftForeArm  41.1934 -73.658 -36.5399
LeftHand  -0.341611 3.12732 17.2154
RightShoulder  3.85545 6.40467 33.028
RightArm  10.7402 -15.3837 32.2425
RightForeArm  38.1736 72.8357 34.6665
RightHand  0.0729008 -7.32682 -6.28806
LeftUpLeg  -36.1904 21.6726 7.03426
LeftLeg  12.3425 2.55955 -3.97758
LeftFoot  1.18229 1.28793 -11.772
LeftToes  1.24767e-006 1.47042e-008 1.32732e-009
96
root  -5.80673 35.2997 24.238 179.962 44.4911 177.619
RightUpLeg  4.82912 -17.7592 -22.2033
RightLeg  35.6943 9.94177 7.37704
RightFoot  -33.5974 3.03342 16.4925
RightToes  -1.46203e-006 3.27826e-006 1.63871e-007
Spine  10.561 0.862759 6.0496
Spine1  15.5297 2.43144 -4.10556
HEad  -29.5035 33.8929 -28.3764
LeftShoulder1  2.33258 -3.77209 -25.9196
LeftArm  -6.68052 -1.74266 -28.2863
LeftForeArm  28.5569 -67.8757 -25.7266
LeftHand  -0.471745 2.53499 19.0035
RightShoulder  3.90112 6.46261 33.2602
RightArm  12.3036 5.4088 37.6572
RightForeArm  21.6601 62.4115 19.5959
RightHand  0.500391 -9.32526 -15.1353
LeftUpLeg  -34.1622 14.3417 14.2817
LeftLeg  4.59125 25.127 -4.52449
LeftFoot  -2.76686 0.680341 -8.80632
LeftToes  1.24767e-006 1.47042e-008 1.32732e-009
97
root  -5.23022 35.0305 22.514 -179.899 41.9619 179.166
RightUpLeg  12.7296 -15.7773 -22.3264
RightLeg  28.5929 7.92124 4.40167
RightFoot  -32.135 3.46071 19.8328
RightToes  -1.46203e-006 3.27826e-006 1.63871e-007
Spine  7.44818 3.98166 9.19621
Spine1  16.7188 6.21167 -5.16069
HEad  -22.6612 27.4726 -21.3461
LeftShoulder1  2.45011 -3.88129 -27.0753
LeftArm  -0.682711 5.37448 -30.1649
LeftForeArm  21.2741 -61.7743 -19.3325
LeftHand  -0.619666 1.65639 19.2128
RightShoulder  3.81717 6.39274 32.6983
RightArm  10.8666 27.8239 44.7188
RightForeArm  17.5004 61.0433 19.0123
RightHand  1.18072 -10.9977 -24.5982
LeftUpLeg  -34.5403 15.8596 13.0852
LeftLeg  6.26047 31.4766 -3.5718
LeftFoot  -4.72628 0.340545 -5.32645
LeftToes  1.24767e-006 1.47042e-008 1.32732e-009
98
root  -4.39377 35.0753 19.8151 179.526 36.4968 178.773
RightUpLeg  23.476 -14.8849 -24.2094
RightLeg  18.8102 6.03558 2.16716
RightFoot  -26.4293 3.47671 27.1918
RightToes  -1.46203e-006 3.27826e-006 1.63871e-007
Spine  3.31835 8.09993 10.9849
Spine1  14.9439 10.6197 -6.13566
HEad  -12.7325 16.0828 -11.5863
LeftShoulder1  2.56798 -4.14416 -27.4943
LeftArm  4.01158 15.5221 -29.8021
LeftForeArm  19.5543 -56.7785 -15.6158
LeftHand  -0.687288 1.0643 18.4109
RightShoulder  3.34085 5.93082 29.4984
RightArm  0.601012 46.7344 49.7076
RightForeArm  25.6052 67.2554 25.1051
RightHand  0.815844 -9.04513 -25.613
LeftUpLeg  -40.0233 25.3305 -0.114617
LeftLeg  14.4991 16.4648 0.601656
LeftFoot  -1.73669 0.0264824 -0.235678
LeftToes  1.24767e-006 1.47042e-008 1.32732e-009
99
root  -3.80023 35.186 16.5868 177.941 28.5978 177.737
RightUpLeg  29.6119 -12.3858 -24.5452
RightLeg  20.4046 -4.66014 -2.12833
RightFoot  -12.1055 0.135358 32.0029
RightToes  -1.46203e-006 3.27826e-006 1.63871e-007
Spine  0.460865 11.8105 13.727
Spine1  12.3509 15.1563 -10.4602
HEad  -5.76627 0.88568 -4.03914
LeftShoulder1  2.54119 -4.29015 -26.4893
LeftArm  4.3081 23.1606 -25.4701
LeftForeArm  20.1196 -53.7667 -13.7368
LeftHand  -0.706257 1.11316 19.1253
RightShoulder  2.58674 5.05724 24.0974
RightArm  -18.7721 60.9279 42.4909
RightForeArm  49.6364 76.001 44.2344
RightHand  0.283145 -6.76111 -24.3129
LeftUpLeg  -41.7343 23.7281 -7.92139
LeftLeg  22.6737 8.435 4.18433
LeftFoot  2.71015 -0.808734 6.42157
LeftToes  1.24767e-006 1.47042e-008 1.32732e-009
100
root  -3.55185 35.3452 13.7028 174.716 19.358 177.593
RightUpLeg  27.548 -10.806 -22.5977
RightLeg  37.1658 -9.30258 -7.47173
RightFoot  11.0867 -4.57242 23.6004
RightToes  -1.46203e-006 3.27826e-006 1.63871e-007
Spine  0.439141 13.7194 16.0272
Spine1  10.7714 17.7769 -15.5926
HEad  -0.431267 -12.3479 0.834127
LeftShoulder1  2.3339 -4.04521 -24.7225
LeftArm  0.799366 26.1779 -18.2788
LeftForeArm  20.4633 -53.3658 -13.4885
LeftHand  -0.735471 1.02565 19.5219
RightShoulder  2.01674 4.2429 19.6594
RightArm  -42.8918 64.7451 20.7151
RightForeArm  98.1534 80.32 89.7034
RightHand  -0.941569 -2.13522 -31.6632
LeftUpLeg  -37.138 17.9313 -8.97392
LeftLeg  28.9408 7.41443 4.74292
LeftFoot  3.77597 -1.12792 8.3158
LeftToes  1.24767e-006 1.47042e-008 1.32732e-009
101
root  -3.35589 35.5519 11.6024 170.301 9.25053 178.294
RightUpLeg  18.4988 -13.1271 -20.7011
RightLeg  60.6045 -0.32197 -0.0682301
RightFoot  27.9899 -5.12148 14.6417
RightToes  -1.46203e-006 3.27826e-006 1.63871e-007
Spine  1.57001 13.817 14.294
Spine1  10.2914 17.3091 -16.9186
HEad  6.14487 -21.8323 3.74773
LeftShoulder1  1.97113 -3.52355 -21.6827
LeftArm  -2.81188 23.6519 -12.9538
LeftForeArm  21.8326 -54.1061 -13.7737
LeftHand  -0.754952 0.643323 18.4608
RightShoulder  1.92662 4.08687 18.9618
RightArm  -49.01 56.2558 10.0281
RightForeArm  138.191 78.4942 125.065
RightHand  -3.21216 3.46208 -40.7752
LeftUpLeg  -30.3366 17.8923 -10.1439
LeftLeg  32.3328 2.21529 1.87224
LeftFoot  2.8287 -0.729907 5.7062
LeftToes  1.24767e-006 1.47042e-008 1.32732e-009
102
root  -3.11547 35.8783 9.72565 165.343 -0.282608 179.754
RightUpLeg  4.69499 -18.551 -21.3496
RightLeg  84.5907 0.905246 12.3345
RightFoot  35.8316 -7.43026 17.4661
RightToes  -1.46203e-006 3.27826e-006 1.63871e-007
Spine  0.433023 13.2781 8.93464
Spine1  12.41 14.8567 -13.0677
HEad  13.9078 -28.9612 3.82124
LeftShoulder1  1.72893 -3.22396 -19.1867
LeftArm  -4.63249 14.2464 -11.9875
LeftForeArm  24.3683 -54.1814 -13.5907
LeftHand  -0.743415 0.479053 17.5848
RightShoulder  2.4161 4.74139 23.1265
RightArm  -43.8456 39.7818 8.04706
RightForeArm  153.93 76.6072 136.78
RightHand  -3.99865 5.37586 -41.5914
LeftUpLeg  -21.8741 16.0252 -9.17446
LeftLeg  34.2525 -1.45064 -0.662822
LeftFoot  1.36435 -0.62832 5.55285
LeftToes  1.24767e-006 1.47042e-008 1.32732e-009
103
root  -2.77884 36.556 7.50884 159.637 -9.39044 -175.335
RightUpLeg  -10.1989 -26.4502 -21.916
RightLeg  99.053 -2.77457 15.4559
RightFoot  40.6082 -9.90345 20.7871
RightToes  -1.46203e-006 3.27826e-006 1.63871e-007
Spine  -4.38245 11.0521 1.1745
Spine1  16.1484 9.34443 -3.37873
HEad  21.1732 -34.1424 2.07672
LeftShoulder1  1.78525 -3.42211 -19.2693
LeftArm  -4.88816 0.257862 -14.1938
LeftForeArm  26.0378 -54.4639 -13.5993
LeftHand  -0.686273 0.762688 17.2146
RightShoulder  3.17883 5.53521 29.2455
RightArm  -38.6116 19.8175 5.77239
RightForeArm  140.584 78.4234 126.026
RightHand  -4.04989 6.02621 -39.8498
LeftUpLeg  -12.3475 9.33625 -4.72106
LeftLeg  35.4105 -3.03008 -1.89878
LeftFoot  -0.785046 -0.790168 8.58716
LeftToes  1.24767e-006 1.47042e-008 1.32732e-009
104
root  -2.26675 37.4281 5.30425 151.146 -19.5031 -163.582
RightUpLeg  -23.7728 -35.6423 -19.5913
RightLeg  104.606 -5.83312 19.8341
RightFoot  40.2779 -9.51743 20.1547
RightToes  -1.46203e-006 3.27826e-006 1.63871e-007
Spine  -7.24915 5.22173 -7.7646
Spine1  17.1068 -0.802976 11.1222
HEad  25.9832 -36.991 1.23272
LeftShoulder1  1.89486 -3.68422 -19.9
LeftArm  -3.69913 -16.0468 -21.2461
LeftForeArm  26.1021 -55.3173 -14.08
LeftHand  -0.715339 0.504023 17.017
RightShoulder  3.81212 6.08737 33.8722
RightArm  -34.0912 2.92857 4.7885
RightForeArm  59.7334 77.2542 51.9524
RightHand  -4.39414 6.44946 -41.5371
LeftUpLeg  -5.17364 4.69778 5.69
LeftLeg  37.8786 -7.24156 -5.61333
LeftFoot  -2.64603 -0.919789 12.2684
LeftToes  1.24767e-006 1.47042e-008 1.32732e-009
105
root  -1.44504 38.1841 3.11784 138.095 -27.3298 -146.944
RightUpLeg  -32.7971 -42.2372 -21.5248
RightLeg  108.759 -8.38217 21.9714
RightFoot  39.8611 -10.6066 22.51
RightToes  -1.46203e-006 3.27826e-006 1.63871e-007
Spine  -3.39185 -0.627516 -15.9071
Spine1  14.5056 -11.0742 25.3024
HEad  29.3063 -38.0904 1.97817
LeftShoulder1  1.86028 -3.90451 -18.5563
LeftArm  3.28336 -34.3446 -36.8252
LeftForeArm  25.1558 -54.867 -13.9035
LeftHand  -0.760053 -0.0369857 16.3088
RightShoulder  4.13903 6.33028 36.1762
RightArm  -31.0574 -9.41481 7.18365
RightForeArm  16.5329 57.8762 16.6427
RightHand  -4.46105 6.5935 -41.6486
LeftUpLeg  -2.17266 4.16709 20.3183
LeftLeg  40.709 -7.81712 -6.63164
LeftFoot  -4.89617 -0.814625 14.9126
LeftToes  1.24767e-006 1.47042e-008 1.32732e-009
106
root  -0.749508 39.1859 1.02956 125.489 -28.2379 -130.786
RightUpLeg  -37.4219 -42.6285 -29.1211
RightLeg  108.995 -7.62096 19.894
RightFoot  41.3863 -11.511 23.6278
RightToes  -1.46203e-006 3.27826e-006 1.63871e-007
Spine  0.683189 -4.06524 -19.0198
Spine1  11.9312 -16.9166 34.1607
HEad  31.9943 -39.4367 3.97217
LeftShoulder1  1.86251 -4.47953 -16.6339
LeftArm  25.1296 -49.79 -62.9248
LeftForeArm  23.6416 -52.0668 -12.5445
LeftHand  -0.76475 -0.432152 15.3253
RightShoulder  4.20005 6.33639 36.752
RightArm  -26.6512 -19.8115 13.0278
RightForeArm  -5.10402 36.2183 8.17045
RightHand  -4.75813 7.37162 -41.7458
LeftUpLeg  -0.702385 8.00604 34.711
LeftLeg  36.8411 -0.566256 -0.0385467
LeftFoot  -6.46763 -0.605812 15.0588
LeftToes  1.24767e-006 1.47042e-008 1.32732e-009
